<?xml version="1.0" standalone="no"?><!-- Generator: Gravit.io --><svg xmlns="http://www.w3.org/2000/svg" xmlns:xlink="http://www.w3.org/1999/xlink" style="isolation:isolate" viewBox="0 0 430 430" width="430" height="430"><defs><clipPath id="_clipPath_lJ1tZgcd7K2yn6MFdM7b7wcXbBg0HESg"><rect width="430" height="430"/></clipPath></defs><g clip-path="url(#_clipPath_lJ1tZgcd7K2yn6MFdM7b7wcXbBg0HESg)"><path d="M 62.208 0 L 367.792 0 C 402.125 0 430 27.875 430 62.208 L 430 367.792 C 430 402.125 402.125 430 367.792 430 L 62.208 430 C 27.875 430 0 402.125 0 367.792 L 0 62.208 C 0 27.875 27.875 0 62.208 0 Z" style="stroke:none;fill:#5F7E97;stroke-miterlimit:10;"/><g><g><g transform="matrix(1,0,0,1,109.647,54)"><text transform="matrix(1,0,0,1,0,37.4)" style="font-family:'Dank Mono';font-weight:400;font-size:48px;font-style:normal;fill:#7fdbca;stroke:none;">&lt;template&gt;</text></g><g transform="matrix(1,0,0,1,109.647,192)"><text transform="matrix(1,0,0,1,0,37.4)" style="font-family:'Dank Mono';font-weight:400;font-size:48px;font-style:normal;fill:#7fdbca;stroke:none;">&lt;script&gt;</text></g><g transform="matrix(1,0,0,1,109.647,328)"><text transform="matrix(1,0,0,1,0,37.4)" style="font-family:'Dank Mono';font-weight:400;font-size:48px;font-style:normal;fill:#7fdbca;stroke:none;">&lt;style&gt;</text></g></g><path d=" M 55.662 192.755 C 55.12 191.97 54.726 191.071 54.518 190.098 C 53.893 187.172 55.079 184.186 57.539 182.49 L 71.466 172.883 C 62.31 159.608 58.871 143.562 61.783 127.7 C 64.696 111.839 73.611 98.061 86.886 88.905 L 91.733 85.561 C 93.407 84.406 95.699 84.827 96.854 86.501 C 98.008 88.175 97.588 90.467 95.914 91.622 L 91.066 94.966 C 67.004 111.562 60.93 144.641 77.527 168.702 C 79.832 172.044 78.989 176.639 75.647 178.944 L 61.719 188.55 L 61.717 188.552 C 61.718 188.558 61.72 188.566 61.722 188.572 C 61.725 188.572 61.729 188.573 61.733 188.574 L 86.782 193.201 C 87.752 193.38 88.734 193.17 89.545 192.61 C 90.357 192.05 90.902 191.207 91.079 190.237 L 95.653 165.178 C 95.654 165.174 95.654 165.17 95.654 165.166 C 95.649 165.163 95.643 165.158 95.637 165.155 L 95.636 165.156 L 92.314 167.447 C 90.64 168.602 88.348 168.181 87.194 166.507 C 86.039 164.834 86.46 162.541 88.134 161.387 L 91.455 159.096 C 93.915 157.399 97.128 157.351 99.64 158.975 C 102.155 160.6 103.433 163.554 102.895 166.5 L 98.322 191.559 C 97.791 194.466 96.158 196.993 93.725 198.671 C 91.292 200.349 88.351 200.977 85.445 200.441 L 60.396 195.814 C 58.43 195.452 56.749 194.331 55.662 192.755 L 55.662 192.755 Z " fill="rgb(255,255,255)"/><path d=" M 371.39 246.12 C 371.828 246.968 372.106 247.909 372.19 248.901 C 372.442 251.881 370.889 254.694 368.235 256.067 L 353.207 263.842 C 360.618 278.166 362.007 294.517 357.119 309.885 C 352.231 325.253 341.651 337.797 327.328 345.208 L 322.097 347.914 C 320.291 348.848 318.07 348.142 317.136 346.336 C 316.201 344.53 316.908 342.309 318.714 341.375 L 323.945 338.669 C 349.906 325.236 360.1 293.187 346.668 267.226 C 344.803 263.62 346.218 259.169 349.824 257.303 L 364.851 249.528 L 364.853 249.527 C 364.853 249.521 364.852 249.513 364.851 249.506 C 364.848 249.506 364.845 249.504 364.841 249.503 L 340.574 241.756 C 339.635 241.456 338.634 241.541 337.759 241.994 C 336.883 242.447 336.236 243.215 335.938 244.155 L 328.242 268.438 C 328.241 268.442 328.241 268.445 328.239 268.449 C 328.244 268.453 328.25 268.458 328.255 268.462 L 328.257 268.461 L 331.841 266.607 C 333.647 265.673 335.868 266.38 336.802 268.185 C 337.736 269.991 337.03 272.212 335.224 273.146 L 331.64 275 C 328.986 276.374 325.793 276.016 323.505 274.089 C 321.215 272.159 320.319 269.068 321.224 266.214 L 328.919 241.931 C 329.812 239.113 331.75 236.813 334.375 235.455 C 337.001 234.097 339.997 233.844 342.813 234.743 L 367.079 242.489 C 368.984 243.096 370.51 244.42 371.39 246.12 L 371.39 246.12 Z " fill="rgb(255,255,255)"/></g></g></svg>